# xmcd
#
# Track frame offsets:
#	150
#	16855
#	36604
#	50797
#	67125
#	82410
#	98530
#	115173
#	132568
#	150585
#	163746
#	181854
#
# Disc length: 2634 seconds
# Revision: 0
# Processed by: cddbd v1.5.2PL0 Copyright (c) Steve Scherf et al.
# Submitted via: dBpowerAMP V12.0
#
DISCID=a80a480c
DTITLE=Joe Camilleri - Bakelite Radio Vol 4
DYEAR=2008
DGENRE=Blues
TTITLE0=Lean On Me
TTITLE1=Don't Judge Me Too Hard
TTITLE2=Viva La Money
TTITLE3=Right Place Wrong Time
TTITLE4=How Many Tears
TTITLE5=Such A Night
TTITLE6=Yes We Can
TTITLE7=Ice
TTITLE8=Landing On My Feet
TTITLE9=Every Natural Thing
TTITLE10=The Raven
TTITLE11=Sumo
EXTD=
EXTT0=
EXTT1=
EXTT2=
EXTT3=
EXTT4=
EXTT5=
EXTT6=
EXTT7=
EXTT8=
EXTT9=
EXTT10=
EXTT11=
PLAYORDER=
